HIERARCHY
ROOT Hips
{
  OFFSET 0 0.240689 0
  CHANNELS 6 Xposition Yposition Zposition Zrotation Xrotation Yrotation
  JOINT Bip01_Spine0
  {
    OFFSET 0 -24.7459 49.7988
    CHANNELS 6 Xposition Yposition Zposition Zrotation Xrotation Yrotation
    JOINT Bip01_Pelvis
    {
      OFFSET 0 0 0
      CHANNELS 6 Xposition Yposition Zposition Zrotation Xrotation Yrotation
      JOINT Bip01_Spine0_Tail
      {
        OFFSET -6.47486 -3.86022 0
        CHANNELS 6 Xposition Yposition Zposition Zrotation Xrotation Yrotation
        JOINT Bip01_Spine0_Tail1
        {
          OFFSET 10.3837 -0.00825882 0
          CHANNELS 6 Xposition Yposition Zposition Zrotation Xrotation Yrotation
          JOINT Bip01_Spine0_Tail2
          {
            OFFSET 10.3837 -0.00826263 0
            CHANNELS 6 Xposition Yposition Zposition Zrotation Xrotation Yrotation
            JOINT Bip01_Spine0_Tail3
            {
              OFFSET 10.3837 -0.00825882 0
              CHANNELS 6 Xposition Yposition Zposition Zrotation Xrotation Yrotation
              JOINT Bip01_Spine0_Tail4
              {
                OFFSET 10.3837 -0.00826263 0
                CHANNELS 6 Xposition Yposition Zposition Zrotation Xrotation Yrotation
                End Site
                {
                  OFFSET 0 0 0
                }
              }
            }
          }
        }
      }
      JOINT Bip01_R_Thigh
      {
        OFFSET 0 -1.52588e-005 -8.75617
        CHANNELS 6 Xposition Yposition Zposition Zrotation Xrotation Yrotation
        JOINT Bip01_R_Calf
        {
          OFFSET 19.7638 0 0
          CHANNELS 6 Xposition Yposition Zposition Zrotation Xrotation Yrotation
          JOINT Bip01_R_Foot
          {
            OFFSET 18.6534 0 0
            CHANNELS 6 Xposition Yposition Zposition Zrotation Xrotation Yrotation
            JOINT Bip01_R_Toe0
            {
              OFFSET 5.09145 13.9567 0
              CHANNELS 6 Xposition Yposition Zposition Zrotation Xrotation Yrotation
              JOINT Bip01_R_Toe01
              {
                OFFSET 4.28803 0 0
                CHANNELS 6 Xposition Yposition Zposition Zrotation Xrotation Yrotation
                JOINT Bip01_R_Toe02
                {
                  OFFSET 3.85801 0 0
                  CHANNELS 6 Xposition Yposition Zposition Zrotation Xrotation Yrotation
                  End Site
                  {
                    OFFSET 0 0 0
                  }
                }
              }
            }
          }
        }
      }
      JOINT Bip01_L_Thigh
      {
        OFFSET 0 1.52588e-005 8.75617
        CHANNELS 6 Xposition Yposition Zposition Zrotation Xrotation Yrotation
        JOINT Bip01_L_Calf
        {
          OFFSET 19.7638 0 0
          CHANNELS 6 Xposition Yposition Zposition Zrotation Xrotation Yrotation
          JOINT Bip01_L_Foot
          {
            OFFSET 18.6534 0 0
            CHANNELS 6 Xposition Yposition Zposition Zrotation Xrotation Yrotation
            JOINT Bip01_L_Toe0
            {
              OFFSET 5.09144 13.9567 0
              CHANNELS 6 Xposition Yposition Zposition Zrotation Xrotation Yrotation
              JOINT Bip01_L_Toe01
              {
                OFFSET 4.28802 0 0
                CHANNELS 6 Xposition Yposition Zposition Zrotation Xrotation Yrotation
                JOINT Bip01_L_Toe02
                {
                  OFFSET 3.85801 0 0
                  CHANNELS 6 Xposition Yposition Zposition Zrotation Xrotation Yrotation
                  End Site
                  {
                    OFFSET 0 0 0
                  }
                }
              }
            }
          }
        }
      }
      JOINT Bip01_Spine
      {
        OFFSET 9.14835 -0.00640869 -1.1e-005
        CHANNELS 6 Xposition Yposition Zposition Zrotation Xrotation Yrotation
        JOINT Bip01_Spine1
        {
          OFFSET 8.04366 -0.00638199 0
          CHANNELS 6 Xposition Yposition Zposition Zrotation Xrotation Yrotation
          JOINT Bip01_Spine2
          {
            OFFSET 8.04367 -0.00639343 0
            CHANNELS 6 Xposition Yposition Zposition Zrotation Xrotation Yrotation
            JOINT Bip01_Spine3
            {
              OFFSET 8.04304 -0.00831222 0
              CHANNELS 6 Xposition Yposition Zposition Zrotation Xrotation Yrotation
              JOINT Bip01_Neck
              {
                OFFSET 10.6685 1.06813 0
                CHANNELS 6 Xposition Yposition Zposition Zrotation Xrotation Yrotation
                JOINT Bip01_R_Clavicle
                {
                  OFFSET -3.21661 -4.89635 -9.04802
                  CHANNELS 6 Xposition Yposition Zposition Zrotation Xrotation Yrotation
                  JOINT Bip01_R_UpperArm
                  {
                    OFFSET 19.0492 0 0
                    CHANNELS 6 Xposition Yposition Zposition Zrotation Xrotation Yrotation
                    JOINT Bip01_R_Forearm
                    {
                      OFFSET 10.3706 0 0
                      CHANNELS 6 Xposition Yposition Zposition Zrotation Xrotation Yrotation
                      JOINT Bip01_R_Hand
                      {
                        OFFSET 22.8632 0 0
                        CHANNELS 6 Xposition Yposition Zposition Zrotation Xrotation Yrotation
                        JOINT Bip01_R_Finger0
                        {
                          OFFSET 6.48259 0.103651 0.504496
                          CHANNELS 6 Xposition Yposition Zposition Zrotation Xrotation Yrotation
                          JOINT Bip01_R_Finger01
                          {
                            OFFSET 3.66847 0 0
                            CHANNELS 6 Xposition Yposition Zposition Zrotation Xrotation Yrotation
                            End Site
                            {
                              OFFSET 0 0 0
                            }
                          }
                        }
                      }
                    }
                  }
                }
                JOINT Bip01_L_Clavicle
                {
                  OFFSET -3.21661 -4.89641 9.04797
                  CHANNELS 6 Xposition Yposition Zposition Zrotation Xrotation Yrotation
                  JOINT Bip01_L_UpperArm
                  {
                    OFFSET 19.0492 0 0
                    CHANNELS 6 Xposition Yposition Zposition Zrotation Xrotation Yrotation
                    JOINT Bip01_L_Forearm
                    {
                      OFFSET 10.3706 0 0
                      CHANNELS 6 Xposition Yposition Zposition Zrotation Xrotation Yrotation
                      JOINT Bip01_L_Hand
                      {
                        OFFSET 22.8631 0 0
                        CHANNELS 6 Xposition Yposition Zposition Zrotation Xrotation Yrotation
                        JOINT Bip01_L_Finger0
                        {
                          OFFSET 6.48257 0.103655 -0.504492
                          CHANNELS 6 Xposition Yposition Zposition Zrotation Xrotation Yrotation
                          JOINT Bip01_L_Finger01
                          {
                            OFFSET 3.66844 0 0
                            CHANNELS 6 Xposition Yposition Zposition Zrotation Xrotation Yrotation
                            End Site
                            {
                              OFFSET 0 0 0
                            }
                          }
                        }
                      }
                    }
                  }
                }
                JOINT Bip01_Neck1
                {
                  OFFSET 7.52459 -0.00656509 0
                  CHANNELS 6 Xposition Yposition Zposition Zrotation Xrotation Yrotation
                  JOINT Bip01_Neck2
                  {
                    OFFSET 8.4783 -0.00588226 0
                    CHANNELS 6 Xposition Yposition Zposition Zrotation Xrotation Yrotation
                    JOINT Bip01_Head
                    {
                      OFFSET 8.41606 0 0
                      CHANNELS 6 Xposition Yposition Zposition Zrotation Xrotation Yrotation
                      JOINT EyesBlue
                      {
                        OFFSET 0 0 0
                        CHANNELS 6 Xposition Yposition Zposition Zrotation Xrotation Yrotation
                        JOINT EyesBlue_2
                        {
                          OFFSET 0 -0.500007 0
                          CHANNELS 6 Xposition Yposition Zposition Zrotation Xrotation Yrotation
                          End Site
                          {
                            OFFSET 0 0 0
                          }
                        }
                      }
                      JOINT Bip01_Head2_Eyeleds
                      {
                        OFFSET 6.52751 7.61746 2.2e-005
                        CHANNELS 6 Xposition Yposition Zposition Zrotation Xrotation Yrotation
                        End Site
                        {
                          OFFSET 0 0 0
                        }
                      }
                      JOINT Bip01_Head_Muzzle
                      {
                        OFFSET 2.88628 13.9448 3.88994
                        CHANNELS 6 Xposition Yposition Zposition Zrotation Xrotation Yrotation
                        End Site
                        {
                          OFFSET 0 0 0
                        }
                      }
                      JOINT Bip01_Head1_Jaw
                      {
                        OFFSET 0.271065 1.32405 0
                        CHANNELS 6 Xposition Yposition Zposition Zrotation Xrotation Yrotation
                        JOINT _Bip01_Head11_TungeControler
                        {
                          OFFSET 4.61616 5.82872 0
                          CHANNELS 6 Xposition Yposition Zposition Zrotation Xrotation Yrotation
                          JOINT _Bip01_Ponytail3_tunge
                          {
                            OFFSET 5.17785 2.98805 0
                            CHANNELS 6 Xposition Yposition Zposition Zrotation Xrotation Yrotation
                            JOINT Bip01_Ponytail31
                            {
                              OFFSET 5.57569 0 0
                              CHANNELS 6 Xposition Yposition Zposition Zrotation Xrotation Yrotation
                              JOINT Bip01_Ponytail32
                              {
                                OFFSET 2.93165 0 0
                                CHANNELS 6 Xposition Yposition Zposition Zrotation Xrotation Yrotation
                                JOINT Bip01_Ponytail3Nub
                                {
                                  OFFSET 3.30155 0 0
                                  CHANNELS 6 Xposition Yposition Zposition Zrotation Xrotation Yrotation
                                  End Site
                                  {
                                    OFFSET 0 0 0
                                  }
                                }
                              }
                            }
                          }
                        }
                        JOINT Bip01_Head_JawNub
                        {
                          OFFSET 15.5776 -0.000389099 0
                          CHANNELS 6 Xposition Yposition Zposition Zrotation Xrotation Yrotation
                          End Site
                          {
                            OFFSET 0 0 0
                          }
                        }
                      }
                      JOINT Bip01_Ponytail2
                      {
                        OFFSET 9.40334 1.03973 -6.51764
                        CHANNELS 6 Xposition Yposition Zposition Zrotation Xrotation Yrotation
                        JOINT Bip01_Ponytail21
                        {
                          OFFSET 2.77018 -0.00640106 1.33514e-005
                          CHANNELS 6 Xposition Yposition Zposition Zrotation Xrotation Yrotation
                          End Site
                          {
                            OFFSET 0 0 0
                          }
                        }
                      }
                      JOINT Bip01_Ponytail1
                      {
                        OFFSET 9.40368 1.03969 6.51768
                        CHANNELS 6 Xposition Yposition Zposition Zrotation Xrotation Yrotation
                        JOINT Bip01_Ponytail11
                        {
                          OFFSET 2.77018 -0.00640487 0
                          CHANNELS 6 Xposition Yposition Zposition Zrotation Xrotation Yrotation
                          End Site
                          {
                            OFFSET 0 0 0
                          }
                        }
                      }
                    }
                  }
                }
              }
            }
          }
        }
      }
    }
  }
}
MOTION
Frames:	4
Frame Time:	0.0333333
0 0 -1e-006 -0 -90 -0 -4.76511 -24.9901 42.2463 101.804 -3.53992 73.3352 0 0 0 -89.4082 0.0230082 -92.5771 -6.46915 -3.86288 0.325414 167.471 44.3382 21.2593 10.3792 -0.007064 6.29987e-005 -28.891 -6.12619 18.0634 10.3834 -0.00811 0.000133999 -21.4804 -28.3977 20.799 10.3851 -0.008014 7.49996e-005 -22.2702 -30.1916 9.92628 10.3847 -0.008098 0.000145999 -16.6902 -32.2672 19.3886 9.00002e-006 -1.50063e-005 -8.75617 -156.861 -3.42563 149.989 19.7638 1e-006 4.20997e-013 -122.172 0.000144447 -0.000573014 18.6534 -3.55272e-015 3.55271e-015 64.6745 10.4457 7.65933 5.09143 13.9567 4.45177e-006 80.7539 3.51909 0.0534624 4.288 -1e-006 2.14939e-013 6.04558 0.000700319 0.00208797 3.85799 -7.10543e-015 7.10543e-015 -45 -3.60141e-005 -1.66765e-006 -1.5e-005 1.10063e-005 8.75617 -113.479 -0.0410996 178.092 19.7638 0 -5.32907e-015 -106.383 -0.000445707 0.00314147 18.6534 7e-006 -5.15144e-013 -2.28219 -0.929185 9.24516 5.09144 13.9567 1.65129e-006 115 0.000716819 4.99922 4.288 -3.55272e-015 1e-006 57 1.72849e-005 -3.64622e-006 3.85799 -2.95764e-013 -1e-006 -45 -2.79101e-005 -2.27829e-005 9.1393 -0.00268116 -0.412269 2.96308 7.62646 12.4757 8.04366 -0.006404 1.15209e-009 7.06795 5.14167 7.80992 8.0436 -0.006401 0.000108 9.92674 5.09695 16.9314 8.04292 -0.008224 9.99666e-006 3.39059 5.59502 26.6508 10.67 1.06796 1.21778e-006 -0.370984 -0.0702825 10.729 -2.50771 -4.0557 -9.66741 -157.376 -63.9158 139.526 19.0492 -7.10543e-015 3.55272e-015 39.5291 24.1524 -42.2358 10.3706 1e-006 2.33591e-013 -102.336 -0.000254359 0.00231462 22.8631 3e-006 9.2193e-013 -0.557441 1.89328 17.8349 6.48255 0.103651 0.504497 -37.8094 -1.5957 -11.719 3.66843 1e-006 9.99999e-007 34.6071 -0.000113643 7.45141e-005 -5.81017 -4.0533 8.12437 145.517 71.9937 -78.8153 19.0492 -7.10543e-015 3e-006 57.4014 -3.0999 103.968 10.3706 2e-006 2.4869e-014 -98.015 -4.00494e-005 0.000566822 22.8631 -1e-006 -9.94761e-014 -35.1055 -47.0563 -20.2155 6.48255 0.103651 -0.504496 -81.0222 18.6003 16.344 3.66843 1e-006 -1e-006 40.107 3.07512e-005 -1.53631e-005 7.52555 -0.006614 5.09991e-005 -3.36147 22.5296 34.1804 8.47686 -0.00645 7.76801e-011 14.5427 2.40837e-005 -5.23965e-005 8.41605 3e-006 -1.42109e-014 -102.662 24.4254 -5.22981 7.67386e-013 3e-006 -3e-006 -23.1099 1.37701e-015 90 -4.87155e-009 -0.500001 -4.77876e-006 -67.6565 90 157.656 0 0 0 -113.549 1.52588e-005 -180 2.88629 13.9448 3.88993 -22.9892 1.37022e-015 90 0 0 0 -87.0368 -7.01671e-015 -180 0 0 0 -115.943 -5.19831e-006 -1.35206e-005 0 0 0 129.52 0.047733 -3.32011 0 0 0 3.99644 1.23669e-006 -8.38597e-008 0 0 0 -20.8017 -7.65441e-006 -1.29153e-008 0 0 0 -26.1943 -6.45513e-006 3.36378e-006 15.5776 -0.000389001 -7.00005e-006 -3.57812e-015 3.18055e-015 -0 9.40334 1.03972 -6.51764 -19.2924 6.17986 20.7176 2.77015 -0.00640101 7.00048e-006 2.43522 0.00172873 0.001661 9.40368 1.03968 6.51767 -19.2925 -6.17987 -20.7175 2.77018 -0.00639301 8.99993e-006 2.43572 0.000800836 0.000767369 
0 0 -1e-006 -0 -90 -0 -4.67221 -24.99 42.4153 101.573 -3.43569 73.6475 0 0 0 -89.8591 0.00548307 -92.8033 -6.4699 -3.86132 0.320605 162.589 44.4275 23.0878 10.3792 -0.007064 6.29988e-005 -30.2547 -1.60806 18.0594 10.3834 -0.00811 0.000133999 -21.5942 -29.3574 22.7231 10.3851 -0.008014 7.49994e-005 -12.4804 -29.819 14.7965 10.3847 -0.008098 0.000145999 -7.67958 -30.4795 23.9694 9e-006 -1.50015e-005 -8.75617 -156.034 -4.04984 150.347 19.7638 1e-006 4.08562e-013 -121.117 0.000137944 -0.000572333 18.6534 3.55272e-015 1.77636e-015 68.6557 11.0809 6.56951 5.09143 13.9567 4.6619e-006 83.0214 3.51255 -0.0560921 4.288 -1e-006 2.31815e-013 12.5646 0.000930319 0.00199653 3.85799 0 5.32907e-015 -45 -2.72039e-005 -3.29127e-007 -1.5e-005 1.10015e-005 8.75617 -113.712 -0.504522 178.48 19.7638 5.32907e-015 -3.55272e-015 -105.981 -0.00042374 0.00314459 18.6534 7e-006 -4.95604e-013 -2.5538 -0.816872 8.94102 5.09144 13.9567 1.59359e-006 115 0.000717032 4.99922 4.288 0 1e-006 57 1.6865e-005 -3.5516e-006 3.85799 -2.83329e-013 -1e-006 -45 -2.75249e-005 -2.25294e-005 9.13765 -0.00542133 -0.448354 2.87013 7.95039 12.5217 8.04366 -0.006404 1.18245e-009 6.97328 5.05763 7.69704 8.0436 -0.006401 0.000108 9.78545 4.9922 16.6634 8.04292 -0.008224 9.99665e-006 3.2962 5.47848 26.2221 10.67 1.06796 1.22084e-006 -0.3632 -0.0669049 10.439 -2.57582 -4.05525 -9.64956 -157.892 -64.3177 138.906 19.0492 -1.77636e-015 -1.77636e-015 40.4376 23.0312 -43.5598 10.3706 1e-006 2.51355e-013 -102.474 -0.000259681 0.00231431 22.8631 3e-006 9.04166e-013 -0.952131 1.55746 18.2188 6.48255 0.103651 0.504497 -38.3793 -1.59693 -11.7761 3.66843 1e-006 9.99999e-007 34.6071 -0.000112763 7.37609e-005 -5.75358 -4.05269 8.1647 146.27 72.3343 -79.6411 19.0492 -2.84217e-014 3e-006 57.8399 -3.12331 103.959 10.3706 2e-006 2.13163e-014 -97.15 -3.15672e-005 0.000567628 22.8631 -1e-006 -9.23706e-014 -34.6811 -46.8044 -19.6627 6.48255 0.103651 -0.504496 -80.946 18.3532 16.3201 3.66843 1e-006 -1e-006 40.107 3.03318e-005 -1.51116e-005 7.52555 -0.006614 5.09991e-005 -3.17133 21.6756 32.8064 8.47686 -0.00645 1.27329e-011 14.5526 2.40144e-005 -5.25456e-005 8.41605 3e-006 4.9738e-014 -102.65 26.1234 -7.47792 7.88702e-013 3e-006 -3e-006 -23.1099 1.37701e-015 90 -1.98747e-008 -0.500001 -4.73957e-006 -45.0093 90 135.009 0 0 0 -113.549 1.52588e-005 -180 2.88629 13.9448 3.88993 -22.9892 1.37022e-015 90 0 0 0 -86.8821 7.01671e-015 -180 0 0 0 -116.338 -8.15991e-006 -1.24128e-005 0 0 0 129.903 0.0434018 -3.01828 0 0 0 4.30612 1.76634e-006 -9.61825e-008 0 0 0 -20.2317 -9.16715e-006 -1.69099e-007 0 0 0 -26.1943 -6.61357e-006 3.844e-006 15.5776 -0.000389001 -7.00006e-006 -4.77083e-015 -7.95139e-016 -0 9.40334 1.03972 -6.51764 -19.2921 6.20248 20.7168 2.77015 -0.00640101 7.00052e-006 2.43522 0.00172898 0.00166102 9.40368 1.03968 6.51767 -19.2922 -6.20248 -20.7167 2.77018 -0.00639301 8.99989e-006 2.43572 0.000800863 0.000767354 
0 0 -1e-006 -0 -90 -0 -4.55463 -24.9903 42.6296 101.283 -3.3071 74.0372 0 0 0 -90.2342 -0.0080677 -93.0116 -6.47 -3.85963 0.319555 156.2 38.7045 24.1511 10.3792 -0.007064 6.29991e-005 -30.8545 0.807807 18.3712 10.3834 -0.00811 0.000133999 -18.6252 -25.9503 23.8367 10.3851 -0.008014 7.49992e-005 -4.17016 -25.5653 18.4587 10.3847 -0.008098 0.000146 -2.35621 -25.4468 25.554 9e-006 -1.49976e-005 -8.75617 -151.98 -5.6706 151.666 19.7638 1e-006 4.52971e-013 -117.501 0.000118171 -0.000570912 18.6534 0 0 65.9088 10.9873 6.12539 5.09143 13.9567 4.43481e-006 85.1141 3.47214 -0.0144534 4.288 -1e-006 2.50466e-013 16.8236 0.00107455 0.00192298 3.85799 -7.10543e-015 0 -45 -1.97748e-005 8.66137e-008 -1.5e-005 1.09976e-005 8.75617 -113.912 -0.948883 178.83 19.7638 -5.32907e-015 7.10543e-015 -105.28 -0.000411804 0.00314244 18.6534 7e-006 -4.79617e-013 -3.01685 -0.668838 8.55768 5.09144 13.9567 1.52133e-006 115 0.000717297 4.99922 4.288 -7.10543e-015 1e-006 57 1.63354e-005 -3.43196e-006 3.85799 -2.6823e-013 -1e-006 -45 -2.70404e-005 -2.22099e-005 9.13599 -0.00749969 -0.48156 2.78214 8.18375 12.5387 8.04366 -0.006404 1.22254e-009 6.87443 4.9696 7.57826 8.0436 -0.006401 0.000108 9.63044 4.87809 16.3683 8.04292 -0.008224 9.99665e-006 3.1923 5.35186 25.7502 10.67 1.06796 1.22351e-006 -0.358416 -0.0631849 9.99955 -2.67099 -4.05489 -9.62367 -158.734 -64.7901 137.925 19.0492 8.88179e-015 0 41.1246 21.9254 -44.9322 10.3706 1e-006 2.5846e-013 -102.432 -0.0002578 0.00231476 22.8631 3e-006 8.8285e-013 -1.38364 1.0997 18.6666 6.48255 0.103651 0.504497 -38.9799 -1.59716 -11.8367 3.66843 1e-006 9.99999e-007 34.6071 -0.000111616 7.28077e-005 -5.67318 -4.05232 8.22079 147.484 72.7661 -80.9445 19.0492 -4.26326e-014 3e-006 58.3928 -3.0496 103.871 10.3706 2e-006 4.9738e-014 -96.2774 -2.29583e-005 0.000568318 22.8631 -1e-006 -8.52652e-014 -34.2984 -46.637 -19.0809 6.48255 0.103651 -0.504496 -80.8658 18.0923 16.295 3.66843 1e-006 -1e-006 40.107 2.98689e-005 -1.48154e-005 7.52555 -0.006614 5.0999e-005 -2.95106 20.4641 30.896 8.47686 -0.00645 -7.06351e-011 14.5565 2.39356e-005 -5.27334e-005 8.41605 3e-006 7.81597e-014 -102.408 27.6299 -9.54277 8.31335e-013 3e-006 -3e-006 -23.1099 1.37701e-015 90 -3.58734e-008 -0.500001 -4.71322e-006 -35.6263 90 125.626 0 0 0 -113.549 7.01671e-015 -180 2.88629 13.9448 3.88993 -22.9892 1.37022e-015 90 0 0 0 -86.7275 -7.01671e-015 -180 0 0 0 -116.733 -1.15175e-005 -1.11027e-005 0 0 0 130.287 0.0390666 -2.71647 0 0 0 4.61578 2.46146e-006 -1.02055e-007 0 0 0 -19.6616 -1.10251e-005 -4.02879e-007 0 0 0 -26.1943 -6.93825e-006 4.36893e-006 15.5776 -0.000389001 -7.00007e-006 7.95139e-016 1.98785e-015 -3.18055e-015 9.40334 1.03972 -6.51764 -19.2921 6.20308 20.7168 2.77015 -0.00640101 7.00061e-006 2.43522 0.00172922 0.00166105 9.40368 1.03968 6.51767 -19.2922 -6.20308 -20.7167 2.77018 -0.00639301 8.99985e-006 2.43572 0.000800868 0.000767339 
0 0 -1e-006 -0 -90 -0 -4.39399 -24.9911 42.9233 100.89 -3.13684 74.5636 0 0 0 -90.5425 -0.0179126 -93.1992 -6.46952 -3.85804 0.321345 148.827 27.4451 23.7172 10.3792 -0.007064 6.29994e-005 -30.733 1.23038 18.9567 10.3834 -0.00811 0.000133999 -12.8597 -18.2614 23.9536 10.3851 -0.008014 7.49991e-005 2.50632 -17.8305 20.4434 10.3847 -0.008098 0.000145999 0.00730565 -17.5416 24.5867 9.00002e-006 -1.49945e-005 -8.75617 -145.329 -7.90459 154.025 19.7638 1e-006 3.76588e-013 -111.116 8.79177e-005 -0.000573258 18.6534 7.10543e-015 -5.32907e-015 56.5073 10.3248 6.21555 5.09143 13.9567 4.01322e-006 89.1118 3.37313 0.196888 4.288 -1e-006 2.64677e-013 23.3082 0.0012831 0.00179106 3.85799 -8.88179e-015 -1.77636e-015 -45 -1.56944e-005 3.4575e-007 -1.5e-005 1.09945e-005 8.75617 -114.083 -1.39113 179.163 19.7638 7.10543e-015 -3.55272e-015 -104.142 -0.000376098 0.00314347 18.6534 7e-006 -4.47642e-013 -3.75256 -0.466316 8.03552 5.09144 13.9567 1.42155e-006 115 0.000717666 4.99922 4.288 -7.10543e-015 1e-006 57.0626 1.55466e-005 -3.26659e-006 3.85799 -2.54019e-013 -1e-006 -45 -2.6336e-005 -2.17316e-005 9.13436 -0.00902055 -0.511441 2.69928 8.33165 12.5179 8.04366 -0.006404 1.28081e-009 6.76313 4.87015 7.44348 8.0436 -0.006401 0.000107999 9.45703 4.7515 16.0366 8.04292 -0.008224 9.99668e-006 3.07466 5.21113 25.2209 10.67 1.06796 1.22545e-006 -0.356251 -0.0588656 9.38422 -2.79007 -4.05462 -9.58994 -159.893 -65.3192 136.598 19.0492 1.77636e-015 -8.88179e-015 41.378 20.9111 -46.3459 10.3706 1e-006 2.59348e-013 -102.069 -0.000242844 0.00231643 22.8631 3e-006 8.57981e-013 -1.84499 0.424722 19.2348 6.48255 0.103651 0.504497 -39.6094 -1.59732 -11.9004 3.66843 1e-006 9.99999e-007 34.6071 -0.000110514 7.19367e-005 -5.57119 -4.05213 8.29036 149.162 73.27 -82.7286 19.0492 -1.42109e-014 3e-006 59.141 -2.7871 103.636 10.3706 2e-006 3.90799e-014 -95.4371 -4.18053e-005 0.000566254 22.8631 -1e-006 -9.23706e-014 -34.0125 -46.6604 -18.4606 6.48255 0.103651 -0.504496 -80.7824 17.8191 16.2692 3.66843 1e-006 -1e-006 40.107 2.95589e-005 -1.46149e-005 7.52555 -0.006614 5.0999e-005 -2.74717 18.9239 28.526 8.47686 -0.00645 -1.69301e-010 14.5605 2.38375e-005 -5.29555e-005 8.41605 3e-006 1.3145e-013 -101.917 28.9758 -11.5348 8.24229e-013 3e-006 -3e-006 -23.1099 1.37701e-015 90 -5.22377e-008 -0.500001 -4.69803e-006 -50.9308 90 140.931 0 0 0 -113.549 7.01671e-015 -180 2.88629 13.9448 3.88993 -22.9892 1.37022e-015 90 0 0 0 -86.5729 -7.01671e-015 -180 0 0 0 -117.128 -1.53474e-005 -9.54259e-006 0 0 0 130.67 0.0347294 -2.41464 0 0 0 4.92543 3.38399e-006 -9.68803e-008 0 0 0 -19.0915 -1.33241e-005 -7.39129e-007 0 0 0 -26.1943 -7.41416e-006 4.93884e-006 15.5776 -0.000389001 -7.00008e-006 -4.27387e-015 2.6339e-015 -0 9.40334 1.03972 -6.51764 -19.2921 6.20369 20.7167 2.77015 -0.00640101 7.00075e-006 2.43522 0.00172945 0.0016611 9.40368 1.03968 6.51767 -19.2922 -6.2037 -20.7167 2.77018 -0.00639301 8.99983e-006 2.43572 0.00080085 0.000767328 
